<svg xmlns="http://www.w3.org/2000/svg" id="canvas" viewBox="906.371 397.728 236.732 342.180"><path d="M 1030.87,447.85 C 1029.64 449.01, 1029.04 450.30, 1027.36 454.81 C 1025.67 459.32, 1024.85 462.25, 1022.45 470.40 C 1020.04 478.56, 1018.45 483.83, 1015.35 495.59 C 1012.24 507.34, 1010.63 514.54, 1006.91 529.16 C 1003.19 543.77, 1000.98 552.29, 996.75 568.66 C 992.52 585.03, 990.09 594.32, 985.75 611.03 C 981.42 627.74, 979.28 636.97, 975.07 652.22 C 970.86 667.47, 968.61 675.01, 964.69 687.27 C 960.77 699.54, 958.88 705.07, 955.45 713.55 C 952.02 722.02, 950.12 725.58, 947.54 729.63 C 944.96 733.68, 944.61 734.48, 942.55 733.81 C 940.49 733.15, 939.38 731.93, 937.26 726.30 C 935.13 720.66, 933.83 715.95, 931.92 705.66 C 930.02 695.37, 929.18 687.21, 927.74 674.86 C 926.29 662.50, 925.77 654.55, 924.71 643.88 C 923.65 633.20, 923.28 625.92, 922.43 621.48 C 921.59 617.04, 920.45 617.16, 920.49 621.68 C 920.53 626.19, 921.66 633.39, 922.64 644.07 C 923.62 654.76, 924.06 662.71, 925.39 675.12 C 926.72 687.53, 927.47 695.67, 929.27 706.13 C 931.07 716.59, 931.90 721.30, 934.39 727.42 C 936.88 733.54, 938.66 736.00, 941.74 736.75 C 944.83 737.49, 946.68 735.63, 949.81 731.14 C 952.93 726.65, 954.09 722.98, 957.38 714.30 C 960.67 705.62, 962.43 700.10, 966.25 687.76 C 970.07 675.42, 972.29 667.87, 976.46 652.60 C 980.63 637.32, 982.76 628.09, 987.10 611.38 C 991.44 594.66, 993.88 585.39, 998.17 569.03 C 1002.46 552.67, 1004.71 544.16, 1008.57 529.59 C 1012.43 515.02, 1014.12 507.83, 1017.47 496.17 C 1020.81 484.51, 1022.60 479.31, 1025.30 471.30 C 1027.99 463.30, 1029.30 460.60, 1030.94 456.14 C 1032.59 451.67, 1033.53 450.64, 1033.51 448.99 C 1033.50 447.33, 1032.10 446.68, 1030.87 447.85" style="stroke: black; fill: black;"/><path d="M 910.41,450.77 C 911.65 451.29, 912.20 451.39, 916.22 450.82 C 920.24 450.24, 922.71 449.39, 930.51 447.90 C 938.31 446.42, 944.33 445.53, 955.23 443.41 C 966.13 441.28, 972.22 439.90, 984.99 437.30 C 997.77 434.69, 1005.54 433.27, 1019.09 430.37 C 1032.65 427.47, 1039.94 425.61, 1052.76 422.79 C 1065.59 419.98, 1072.13 418.71, 1083.22 416.29 C 1094.31 413.87, 1099.48 412.66, 1108.23 410.70 C 1116.98 408.73, 1121.29 407.57, 1126.97 406.47 C 1132.66 405.37, 1134.11 405.82, 1136.67 405.19 C 1139.22 404.56, 1139.29 403.76, 1139.75 403.31 C 1140.21 402.86, 1139.04 402.91, 1138.98 402.93 C 1138.92 402.95, 1139.27 403.62, 1139.45 403.41 C 1139.62 403.21, 1140.55 402.45, 1139.84 401.92 C 1139.12 401.40, 1138.59 400.48, 1135.88 400.79 C 1133.17 401.10, 1131.91 401.93, 1126.27 403.46 C 1120.64 405.00, 1116.39 406.27, 1107.69 408.47 C 1099.00 410.66, 1093.87 411.91, 1082.81 414.44 C 1071.75 416.96, 1065.20 418.23, 1052.38 421.07 C 1039.57 423.91, 1032.28 425.78, 1018.72 428.64 C 1005.17 431.50, 997.40 432.89, 984.61 435.35 C 971.82 437.81, 965.71 439.10, 954.78 440.95 C 943.85 442.79, 937.80 443.44, 929.95 444.56 C 922.10 445.68, 919.51 445.82, 915.53 446.55 C 911.55 447.27, 911.07 447.35, 910.05 448.20 C 909.02 449.04, 909.18 450.24, 910.41 450.77" style="stroke: black; fill: black;"/><path d="M 944.22,533.19 C 945.31 533.99, 945.81 534.54, 949.88 534.64 C 953.96 534.74, 956.91 534.46, 964.60 533.71 C 972.29 532.96, 977.75 532.17, 988.35 530.89 C 998.95 529.61, 1005.70 528.73, 1017.60 527.31 C 1029.51 525.90, 1036.93 524.92, 1047.89 523.83 C 1058.84 522.74, 1064.65 522.22, 1072.38 521.86 C 1080.10 521.50, 1082.72 521.94, 1086.52 522.03 C 1090.32 522.12, 1090.49 522.08, 1091.38 522.33 C 1092.27 522.57, 1090.84 523.01, 1090.97 523.25 C 1091.09 523.48, 1091.69 524.00, 1091.99 523.49 C 1092.28 522.97, 1093.51 521.68, 1092.45 520.67 C 1091.39 519.66, 1090.74 518.73, 1086.69 518.44 C 1082.65 518.15, 1080.02 518.59, 1072.21 519.22 C 1064.40 519.85, 1058.63 520.42, 1047.66 521.59 C 1036.69 522.76, 1029.27 523.75, 1017.35 525.08 C 1005.43 526.42, 998.67 527.22, 988.07 528.25 C 977.46 529.28, 971.98 529.84, 964.34 530.22 C 956.71 530.61, 953.87 530.10, 949.89 530.19 C 945.91 530.27, 945.58 530.04, 944.45 530.64 C 943.31 531.24, 943.13 532.39, 944.22 533.19" style="stroke: black; fill: black;"/></svg>